<svg xmlns="http://www.w3.org/2000/svg" viewBox="-2 -2 48 48" fill="none" stroke="#000000" stroke-linecap="round" stroke-linejoin="round" id="Binary-Tree-2--Streamline-Tabler" height="48" width="48">
  <desc>
    Binary Tree 2 Streamline Icon: https://streamlinehq.com
  </desc>
  <path d="M25.666666666666664 11a3.6666666666666665 3.6666666666666665 0 1 0 -7.333333333333333 0 3.6666666666666665 3.6666666666666665 0 0 0 7.333333333333333 0z" stroke-width="4"></path>
  <path d="M12.833333333333332 25.666666666666664a3.6666666666666665 3.6666666666666665 0 1 0 -7.333333333333333 0 3.6666666666666665 3.6666666666666665 0 0 0 7.333333333333333 0z" stroke-width="4"></path>
  <path d="M38.5 25.666666666666664a3.6666666666666665 3.6666666666666665 0 1 0 -7.333333333333333 0 3.6666666666666665 3.6666666666666665 0 0 0 7.333333333333333 0z" stroke-width="4"></path>
  <path d="M25.666666666666664 33a3.6666666666666665 3.6666666666666665 0 1 0 -7.333333333333333 0 3.6666666666666665 3.6666666666666665 0 0 0 7.333333333333333 0z" stroke-width="4"></path>
  <path d="M22 14.666666666666666v14.666666666666666" stroke-width="4"></path>
  <path d="m11.579333333333333 22.909333333333333 8.008000000000001 -9.152" stroke-width="4"></path>
  <path d="m32.42066666666667 22.909333333333333 -8.004333333333332 -9.148333333333333" stroke-width="4"></path>
</svg>