<svg xmlns="http://www.w3.org/2000/svg" viewBox="-2 -2 48 48" fill="none" stroke="#ffffff" stroke-linecap="round" stroke-linejoin="round" id="Cube--Streamline-Tabler" height="48" width="48">
  <desc>
    Cube Streamline Icon: https://streamlinehq.com
  </desc>
  <path d="M38.5 29.347999999999995V14.648333333333333a3.63 3.63 0 0 0 -1.8333333333333333 -3.1478333333333333l-12.833333333333332 -7.348a3.6959999999999997 3.6959999999999997 0 0 0 -3.6666666666666665 0L7.333333333333333 11.500499999999999c-1.1348333333333334 0.6508333333333333 -1.8333333333333333 1.8516666666666666 -1.8333333333333333 3.1496666666666666v14.699666666666667c0 1.2998333333333332 0.6985 2.4988333333333332 1.8333333333333333 3.1478333333333333l12.833333333333332 7.348a3.6959999999999997 3.6959999999999997 0 0 0 3.6666666666666665 0l12.833333333333332 -7.348c1.1348333333333334 -0.6508333333333333 1.8333333333333333 -1.8516666666666666 1.8333333333333333 -3.1496666666666666z" stroke-width="4"></path>
  <path d="M22 40.33333333333333V22" stroke-width="4"></path>
  <path d="m22 22 16.005 -9.24" stroke-width="4"></path>
  <path d="M5.995 12.76 22 22" stroke-width="4"></path>
</svg>