<svg xmlns="http://www.w3.org/2000/svg" viewBox="-2 -2 48 48" fill="none" stroke="#000000" stroke-linecap="round" stroke-linejoin="round" id="Checkup-List--Streamline-Tabler" height="48" width="48">
  <desc>
    Checkup List Streamline Icon: https://streamlinehq.com
  </desc>
  <path d="M16.5 9.166666666666666H12.833333333333332a3.6666666666666665 3.6666666666666665 0 0 0 -3.6666666666666665 3.6666666666666665v22a3.6666666666666665 3.6666666666666665 0 0 0 3.6666666666666665 3.6666666666666665h18.333333333333332a3.6666666666666665 3.6666666666666665 0 0 0 3.6666666666666665 -3.6666666666666665V12.833333333333332a3.6666666666666665 3.6666666666666665 0 0 0 -3.6666666666666665 -3.6666666666666665h-3.6666666666666665" stroke-width="4"></path>
  <path d="M16.5 9.166666666666666a3.6666666666666665 3.6666666666666665 0 0 1 3.6666666666666665 -3.6666666666666665h3.6666666666666665a3.6666666666666665 3.6666666666666665 0 0 1 3.6666666666666665 3.6666666666666665v0a3.6666666666666665 3.6666666666666665 0 0 1 -3.6666666666666665 3.6666666666666665h-3.6666666666666665a3.6666666666666665 3.6666666666666665 0 0 1 -3.6666666666666665 -3.6666666666666665z" stroke-width="4"></path>
  <path d="M16.5 25.666666666666664h0.018333333333333333" stroke-width="4"></path>
  <path d="M16.5 31.166666666666664h0.018333333333333333" stroke-width="4"></path>
  <path d="m22 29.333333333333332 1.8333333333333333 1.8333333333333333 5.5 -5.5" stroke-width="4"></path>
</svg>