<svg width="438" height="937" viewBox="0 0 438 937" fill="none" xmlns="http://www.w3.org/2000/svg">
<g filter="url(#filter0_d_3576_434)">
<g clip-path="url(#clip0_3576_434)">
<path d="M4 27C4 12.0883 16.0883 0 31 0H407C421.912 0 434 12.0883 434 27V902C434 916.912 421.912 929 407 929H31C16.0883 929 4 916.912 4 902V27Z" fill="white"/>
<path d="M34 145.5C34 130.036 46.536 117.5 62 117.5H376C391.464 117.5 404 130.036 404 145.5V145.5C404 160.964 391.464 173.5 376 173.5H62C46.536 173.5 34 160.964 34 145.5V145.5Z" fill="#FFC73D"/>
<path d="M59.5 136.5C63.09 136.5 66 139.41 66 143C66 144.61 65.4097 146.09 64.4297 147.23L64.71 147.5H65.5L70.4902 152.5L69 153.99L64 149V148.21L63.7305 147.93C62.5905 148.91 61.11 149.5 59.5 149.5C55.91 149.5 53 146.59 53 143C53 139.41 55.91 136.5 59.5 136.5ZM59.5 138.5C57.01 138.5 55 140.51 55 143C55 145.49 57.01 147.5 59.5 147.5C61.99 147.5 64 145.49 64 143C64 140.51 61.99 138.5 59.5 138.5Z" fill="black"/>
<path d="M102.188 146.883H103.688C103.609 147.602 103.404 148.245 103.07 148.812C102.737 149.38 102.266 149.831 101.656 150.164C101.047 150.492 100.286 150.656 99.375 150.656C98.7083 150.656 98.1016 150.531 97.5547 150.281C97.013 150.031 96.5469 149.677 96.1562 149.219C95.7656 148.755 95.4635 148.201 95.25 147.555C95.0417 146.904 94.9375 146.18 94.9375 145.383V144.25C94.9375 143.453 95.0417 142.732 95.25 142.086C95.4635 141.435 95.7682 140.878 96.1641 140.414C96.5651 139.951 97.0469 139.594 97.6094 139.344C98.1719 139.094 98.8047 138.969 99.5078 138.969C100.367 138.969 101.094 139.13 101.688 139.453C102.281 139.776 102.742 140.224 103.07 140.797C103.404 141.365 103.609 142.023 103.688 142.773H102.188C102.115 142.242 101.979 141.786 101.781 141.406C101.583 141.021 101.302 140.724 100.938 140.516C100.573 140.307 100.096 140.203 99.5078 140.203C99.0026 140.203 98.5573 140.299 98.1719 140.492C97.7917 140.685 97.4714 140.958 97.2109 141.312C96.9557 141.667 96.763 142.091 96.6328 142.586C96.5026 143.081 96.4375 143.63 96.4375 144.234V145.383C96.4375 145.94 96.4948 146.464 96.6094 146.953C96.7292 147.443 96.9089 147.872 97.1484 148.242C97.388 148.612 97.6927 148.904 98.0625 149.117C98.4323 149.326 98.8698 149.43 99.375 149.43C100.016 149.43 100.526 149.328 100.906 149.125C101.286 148.922 101.573 148.63 101.766 148.25C101.964 147.87 102.104 147.414 102.188 146.883ZM109.531 150.656C108.943 150.656 108.409 150.557 107.93 150.359C107.456 150.156 107.047 149.872 106.703 149.508C106.365 149.143 106.104 148.711 105.922 148.211C105.74 147.711 105.648 147.164 105.648 146.57V146.242C105.648 145.555 105.75 144.943 105.953 144.406C106.156 143.865 106.432 143.406 106.781 143.031C107.13 142.656 107.526 142.372 107.969 142.18C108.411 141.987 108.87 141.891 109.344 141.891C109.948 141.891 110.469 141.995 110.906 142.203C111.349 142.411 111.711 142.703 111.992 143.078C112.273 143.448 112.482 143.885 112.617 144.391C112.753 144.891 112.82 145.438 112.82 146.031V146.68H106.508V145.5H111.375V145.391C111.354 145.016 111.276 144.651 111.141 144.297C111.01 143.943 110.802 143.651 110.516 143.422C110.229 143.193 109.839 143.078 109.344 143.078C109.016 143.078 108.714 143.148 108.438 143.289C108.161 143.424 107.924 143.628 107.727 143.898C107.529 144.169 107.375 144.5 107.266 144.891C107.156 145.281 107.102 145.732 107.102 146.242V146.57C107.102 146.971 107.156 147.349 107.266 147.703C107.38 148.052 107.544 148.359 107.758 148.625C107.977 148.891 108.24 149.099 108.547 149.25C108.859 149.401 109.214 149.477 109.609 149.477C110.12 149.477 110.552 149.372 110.906 149.164C111.26 148.956 111.57 148.677 111.836 148.328L112.711 149.023C112.529 149.299 112.297 149.562 112.016 149.812C111.734 150.062 111.388 150.266 110.977 150.422C110.57 150.578 110.089 150.656 109.531 150.656ZM116.453 143.375V150.5H115.008V142.047H116.414L116.453 143.375ZM119.094 142L119.086 143.344C118.966 143.318 118.852 143.302 118.742 143.297C118.638 143.286 118.518 143.281 118.383 143.281C118.049 143.281 117.755 143.333 117.5 143.438C117.245 143.542 117.029 143.688 116.852 143.875C116.674 144.062 116.534 144.286 116.43 144.547C116.331 144.802 116.266 145.083 116.234 145.391L115.828 145.625C115.828 145.115 115.878 144.635 115.977 144.188C116.081 143.74 116.24 143.344 116.453 143C116.667 142.651 116.938 142.38 117.266 142.188C117.599 141.99 117.995 141.891 118.453 141.891C118.557 141.891 118.677 141.904 118.812 141.93C118.948 141.951 119.042 141.974 119.094 142ZM124.172 149.469C124.516 149.469 124.833 149.398 125.125 149.258C125.417 149.117 125.656 148.924 125.844 148.68C126.031 148.43 126.138 148.146 126.164 147.828H127.539C127.513 148.328 127.344 148.794 127.031 149.227C126.724 149.654 126.32 150 125.82 150.266C125.32 150.526 124.771 150.656 124.172 150.656C123.536 150.656 122.982 150.544 122.508 150.32C122.039 150.096 121.648 149.789 121.336 149.398C121.029 149.008 120.797 148.56 120.641 148.055C120.49 147.544 120.414 147.005 120.414 146.438V146.109C120.414 145.542 120.49 145.005 120.641 144.5C120.797 143.99 121.029 143.539 121.336 143.148C121.648 142.758 122.039 142.451 122.508 142.227C122.982 142.003 123.536 141.891 124.172 141.891C124.833 141.891 125.411 142.026 125.906 142.297C126.401 142.562 126.789 142.927 127.07 143.391C127.357 143.849 127.513 144.37 127.539 144.953H126.164C126.138 144.604 126.039 144.289 125.867 144.008C125.701 143.727 125.471 143.503 125.18 143.336C124.893 143.164 124.557 143.078 124.172 143.078C123.729 143.078 123.357 143.167 123.055 143.344C122.758 143.516 122.521 143.75 122.344 144.047C122.172 144.339 122.047 144.664 121.969 145.023C121.896 145.378 121.859 145.74 121.859 146.109V146.438C121.859 146.807 121.896 147.172 121.969 147.531C122.042 147.891 122.164 148.216 122.336 148.508C122.513 148.799 122.75 149.034 123.047 149.211C123.349 149.383 123.724 149.469 124.172 149.469ZM134.648 149.055V144.703C134.648 144.37 134.581 144.081 134.445 143.836C134.315 143.586 134.117 143.393 133.852 143.258C133.586 143.122 133.258 143.055 132.867 143.055C132.503 143.055 132.182 143.117 131.906 143.242C131.635 143.367 131.422 143.531 131.266 143.734C131.115 143.938 131.039 144.156 131.039 144.391H129.594C129.594 144.089 129.672 143.789 129.828 143.492C129.984 143.195 130.208 142.927 130.5 142.688C130.797 142.443 131.151 142.25 131.562 142.109C131.979 141.964 132.443 141.891 132.953 141.891C133.568 141.891 134.109 141.995 134.578 142.203C135.052 142.411 135.422 142.727 135.688 143.148C135.958 143.565 136.094 144.089 136.094 144.719V148.656C136.094 148.938 136.117 149.237 136.164 149.555C136.216 149.872 136.292 150.146 136.391 150.375V150.5H134.883C134.81 150.333 134.753 150.112 134.711 149.836C134.669 149.555 134.648 149.294 134.648 149.055ZM134.898 145.375L134.914 146.391H133.453C133.042 146.391 132.674 146.424 132.352 146.492C132.029 146.555 131.758 146.651 131.539 146.781C131.32 146.911 131.154 147.076 131.039 147.273C130.924 147.466 130.867 147.693 130.867 147.953C130.867 148.219 130.927 148.461 131.047 148.68C131.167 148.898 131.346 149.073 131.586 149.203C131.831 149.328 132.13 149.391 132.484 149.391C132.927 149.391 133.318 149.297 133.656 149.109C133.995 148.922 134.263 148.693 134.461 148.422C134.664 148.151 134.773 147.888 134.789 147.633L135.406 148.328C135.37 148.547 135.271 148.789 135.109 149.055C134.948 149.32 134.732 149.576 134.461 149.82C134.195 150.06 133.878 150.26 133.508 150.422C133.143 150.578 132.732 150.656 132.273 150.656C131.701 150.656 131.198 150.544 130.766 150.32C130.339 150.096 130.005 149.797 129.766 149.422C129.531 149.042 129.414 148.617 129.414 148.148C129.414 147.695 129.503 147.297 129.68 146.953C129.857 146.604 130.112 146.315 130.445 146.086C130.779 145.852 131.18 145.674 131.648 145.555C132.117 145.435 132.641 145.375 133.219 145.375H134.898ZM148.258 148.258C148.258 148.049 148.211 147.857 148.117 147.68C148.029 147.497 147.844 147.333 147.562 147.188C147.286 147.036 146.87 146.906 146.312 146.797C145.844 146.698 145.419 146.581 145.039 146.445C144.664 146.31 144.344 146.146 144.078 145.953C143.818 145.76 143.617 145.534 143.477 145.273C143.336 145.013 143.266 144.708 143.266 144.359C143.266 144.026 143.339 143.711 143.484 143.414C143.635 143.117 143.846 142.854 144.117 142.625C144.393 142.396 144.724 142.216 145.109 142.086C145.495 141.956 145.924 141.891 146.398 141.891C147.076 141.891 147.654 142.01 148.133 142.25C148.612 142.49 148.979 142.81 149.234 143.211C149.49 143.607 149.617 144.047 149.617 144.531H148.172C148.172 144.297 148.102 144.07 147.961 143.852C147.826 143.628 147.625 143.443 147.359 143.297C147.099 143.151 146.779 143.078 146.398 143.078C145.997 143.078 145.672 143.141 145.422 143.266C145.177 143.385 144.997 143.539 144.883 143.727C144.773 143.914 144.719 144.112 144.719 144.32C144.719 144.477 144.745 144.617 144.797 144.742C144.854 144.862 144.953 144.974 145.094 145.078C145.234 145.177 145.432 145.271 145.688 145.359C145.943 145.448 146.268 145.536 146.664 145.625C147.357 145.781 147.927 145.969 148.375 146.188C148.823 146.406 149.156 146.674 149.375 146.992C149.594 147.31 149.703 147.695 149.703 148.148C149.703 148.518 149.625 148.857 149.469 149.164C149.318 149.471 149.096 149.737 148.805 149.961C148.518 150.18 148.174 150.352 147.773 150.477C147.378 150.596 146.932 150.656 146.438 150.656C145.693 150.656 145.062 150.523 144.547 150.258C144.031 149.992 143.641 149.648 143.375 149.227C143.109 148.805 142.977 148.359 142.977 147.891H144.43C144.451 148.286 144.565 148.602 144.773 148.836C144.982 149.065 145.237 149.229 145.539 149.328C145.841 149.422 146.141 149.469 146.438 149.469C146.833 149.469 147.164 149.417 147.43 149.312C147.701 149.208 147.906 149.065 148.047 148.883C148.188 148.701 148.258 148.492 148.258 148.258ZM157.273 148.547V142.047H158.727V150.5H157.344L157.273 148.547ZM157.547 146.766L158.148 146.75C158.148 147.312 158.089 147.833 157.969 148.312C157.854 148.786 157.667 149.198 157.406 149.547C157.146 149.896 156.805 150.169 156.383 150.367C155.961 150.56 155.448 150.656 154.844 150.656C154.432 150.656 154.055 150.596 153.711 150.477C153.372 150.357 153.081 150.172 152.836 149.922C152.591 149.672 152.401 149.346 152.266 148.945C152.135 148.544 152.07 148.062 152.07 147.5V142.047H153.516V147.516C153.516 147.896 153.557 148.211 153.641 148.461C153.729 148.706 153.846 148.901 153.992 149.047C154.143 149.188 154.31 149.286 154.492 149.344C154.68 149.401 154.872 149.43 155.07 149.43C155.685 149.43 156.172 149.312 156.531 149.078C156.891 148.839 157.148 148.518 157.305 148.117C157.466 147.711 157.547 147.26 157.547 146.766ZM170.008 139.125V150.5H168.523V139.125H170.008ZM173.664 139.125V140.359H164.875V139.125H173.664ZM176.5 143.375V150.5H175.055V142.047H176.461L176.5 143.375ZM179.141 142L179.133 143.344C179.013 143.318 178.898 143.302 178.789 143.297C178.685 143.286 178.565 143.281 178.43 143.281C178.096 143.281 177.802 143.333 177.547 143.438C177.292 143.542 177.076 143.688 176.898 143.875C176.721 144.062 176.581 144.286 176.477 144.547C176.378 144.802 176.312 145.083 176.281 145.391L175.875 145.625C175.875 145.115 175.924 144.635 176.023 144.188C176.128 143.74 176.286 143.344 176.5 143C176.714 142.651 176.984 142.38 177.312 142.188C177.646 141.99 178.042 141.891 178.5 141.891C178.604 141.891 178.724 141.904 178.859 141.93C178.995 141.951 179.089 141.974 179.141 142ZM185.648 149.055V144.703C185.648 144.37 185.581 144.081 185.445 143.836C185.315 143.586 185.117 143.393 184.852 143.258C184.586 143.122 184.258 143.055 183.867 143.055C183.503 143.055 183.182 143.117 182.906 143.242C182.635 143.367 182.422 143.531 182.266 143.734C182.115 143.938 182.039 144.156 182.039 144.391H180.594C180.594 144.089 180.672 143.789 180.828 143.492C180.984 143.195 181.208 142.927 181.5 142.688C181.797 142.443 182.151 142.25 182.562 142.109C182.979 141.964 183.443 141.891 183.953 141.891C184.568 141.891 185.109 141.995 185.578 142.203C186.052 142.411 186.422 142.727 186.688 143.148C186.958 143.565 187.094 144.089 187.094 144.719V148.656C187.094 148.938 187.117 149.237 187.164 149.555C187.216 149.872 187.292 150.146 187.391 150.375V150.5H185.883C185.81 150.333 185.753 150.112 185.711 149.836C185.669 149.555 185.648 149.294 185.648 149.055ZM185.898 145.375L185.914 146.391H184.453C184.042 146.391 183.674 146.424 183.352 146.492C183.029 146.555 182.758 146.651 182.539 146.781C182.32 146.911 182.154 147.076 182.039 147.273C181.924 147.466 181.867 147.693 181.867 147.953C181.867 148.219 181.927 148.461 182.047 148.68C182.167 148.898 182.346 149.073 182.586 149.203C182.831 149.328 183.13 149.391 183.484 149.391C183.927 149.391 184.318 149.297 184.656 149.109C184.995 148.922 185.263 148.693 185.461 148.422C185.664 148.151 185.773 147.888 185.789 147.633L186.406 148.328C186.37 148.547 186.271 148.789 186.109 149.055C185.948 149.32 185.732 149.576 185.461 149.82C185.195 150.06 184.878 150.26 184.508 150.422C184.143 150.578 183.732 150.656 183.273 150.656C182.701 150.656 182.198 150.544 181.766 150.32C181.339 150.096 181.005 149.797 180.766 149.422C180.531 149.042 180.414 148.617 180.414 148.148C180.414 147.695 180.503 147.297 180.68 146.953C180.857 146.604 181.112 146.315 181.445 146.086C181.779 145.852 182.18 145.674 182.648 145.555C183.117 145.435 183.641 145.375 184.219 145.375H185.898ZM192.328 149.195L194.641 142.047H196.117L193.078 150.5H192.109L192.328 149.195ZM190.398 142.047L192.781 149.234L192.945 150.5H191.977L188.914 142.047H190.398ZM201.422 150.656C200.833 150.656 200.299 150.557 199.82 150.359C199.346 150.156 198.938 149.872 198.594 149.508C198.255 149.143 197.995 148.711 197.812 148.211C197.63 147.711 197.539 147.164 197.539 146.57V146.242C197.539 145.555 197.641 144.943 197.844 144.406C198.047 143.865 198.323 143.406 198.672 143.031C199.021 142.656 199.417 142.372 199.859 142.18C200.302 141.987 200.76 141.891 201.234 141.891C201.839 141.891 202.359 141.995 202.797 142.203C203.24 142.411 203.602 142.703 203.883 143.078C204.164 143.448 204.372 143.885 204.508 144.391C204.643 144.891 204.711 145.438 204.711 146.031V146.68H198.398V145.5H203.266V145.391C203.245 145.016 203.167 144.651 203.031 144.297C202.901 143.943 202.693 143.651 202.406 143.422C202.12 143.193 201.729 143.078 201.234 143.078C200.906 143.078 200.604 143.148 200.328 143.289C200.052 143.424 199.815 143.628 199.617 143.898C199.419 144.169 199.266 144.5 199.156 144.891C199.047 145.281 198.992 145.732 198.992 146.242V146.57C198.992 146.971 199.047 147.349 199.156 147.703C199.271 148.052 199.435 148.359 199.648 148.625C199.867 148.891 200.13 149.099 200.438 149.25C200.75 149.401 201.104 149.477 201.5 149.477C202.01 149.477 202.443 149.372 202.797 149.164C203.151 148.956 203.461 148.677 203.727 148.328L204.602 149.023C204.419 149.299 204.188 149.562 203.906 149.812C203.625 150.062 203.279 150.266 202.867 150.422C202.461 150.578 201.979 150.656 201.422 150.656ZM208.469 138.5V150.5H207.016V138.5H208.469ZM211.984 139.125H213.445L217.172 148.398L220.891 139.125H222.359L217.734 150.5H216.594L211.984 139.125ZM211.508 139.125H212.797L213.008 146.062V150.5H211.508V139.125ZM221.539 139.125H222.828V150.5H221.328V146.062L221.539 139.125ZM230.742 149.055V144.703C230.742 144.37 230.674 144.081 230.539 143.836C230.409 143.586 230.211 143.393 229.945 143.258C229.68 143.122 229.352 143.055 228.961 143.055C228.596 143.055 228.276 143.117 228 143.242C227.729 143.367 227.516 143.531 227.359 143.734C227.208 143.938 227.133 144.156 227.133 144.391H225.688C225.688 144.089 225.766 143.789 225.922 143.492C226.078 143.195 226.302 142.927 226.594 142.688C226.891 142.443 227.245 142.25 227.656 142.109C228.073 141.964 228.536 141.891 229.047 141.891C229.661 141.891 230.203 141.995 230.672 142.203C231.146 142.411 231.516 142.727 231.781 143.148C232.052 143.565 232.188 144.089 232.188 144.719V148.656C232.188 148.938 232.211 149.237 232.258 149.555C232.31 149.872 232.385 150.146 232.484 150.375V150.5H230.977C230.904 150.333 230.846 150.112 230.805 149.836C230.763 149.555 230.742 149.294 230.742 149.055ZM230.992 145.375L231.008 146.391H229.547C229.135 146.391 228.768 146.424 228.445 146.492C228.122 146.555 227.852 146.651 227.633 146.781C227.414 146.911 227.247 147.076 227.133 147.273C227.018 147.466 226.961 147.693 226.961 147.953C226.961 148.219 227.021 148.461 227.141 148.68C227.26 148.898 227.44 149.073 227.68 149.203C227.924 149.328 228.224 149.391 228.578 149.391C229.021 149.391 229.411 149.297 229.75 149.109C230.089 148.922 230.357 148.693 230.555 148.422C230.758 148.151 230.867 147.888 230.883 147.633L231.5 148.328C231.464 148.547 231.365 148.789 231.203 149.055C231.042 149.32 230.826 149.576 230.555 149.82C230.289 150.06 229.971 150.26 229.602 150.422C229.237 150.578 228.826 150.656 228.367 150.656C227.794 150.656 227.292 150.544 226.859 150.32C226.432 150.096 226.099 149.797 225.859 149.422C225.625 149.042 225.508 148.617 225.508 148.148C225.508 147.695 225.596 147.297 225.773 146.953C225.951 146.604 226.206 146.315 226.539 146.086C226.872 145.852 227.273 145.674 227.742 145.555C228.211 145.435 228.734 145.375 229.312 145.375H230.992ZM238.5 142.047V143.156H233.93V142.047H238.5ZM235.477 139.992H236.922V148.406C236.922 148.693 236.966 148.909 237.055 149.055C237.143 149.201 237.258 149.297 237.398 149.344C237.539 149.391 237.69 149.414 237.852 149.414C237.971 149.414 238.096 149.404 238.227 149.383C238.362 149.357 238.464 149.336 238.531 149.32L238.539 150.5C238.424 150.536 238.273 150.57 238.086 150.602C237.904 150.638 237.682 150.656 237.422 150.656C237.068 150.656 236.742 150.586 236.445 150.445C236.148 150.305 235.911 150.07 235.734 149.742C235.562 149.409 235.477 148.961 235.477 148.398V139.992ZM244.203 150.656C243.615 150.656 243.081 150.557 242.602 150.359C242.128 150.156 241.719 149.872 241.375 149.508C241.036 149.143 240.776 148.711 240.594 148.211C240.411 147.711 240.32 147.164 240.32 146.57V146.242C240.32 145.555 240.422 144.943 240.625 144.406C240.828 143.865 241.104 143.406 241.453 143.031C241.802 142.656 242.198 142.372 242.641 142.18C243.083 141.987 243.542 141.891 244.016 141.891C244.62 141.891 245.141 141.995 245.578 142.203C246.021 142.411 246.383 142.703 246.664 143.078C246.945 143.448 247.154 143.885 247.289 144.391C247.424 144.891 247.492 145.438 247.492 146.031V146.68H241.18V145.5H246.047V145.391C246.026 145.016 245.948 144.651 245.812 144.297C245.682 143.943 245.474 143.651 245.188 143.422C244.901 143.193 244.51 143.078 244.016 143.078C243.688 143.078 243.385 143.148 243.109 143.289C242.833 143.424 242.596 143.628 242.398 143.898C242.201 144.169 242.047 144.5 241.938 144.891C241.828 145.281 241.773 145.732 241.773 146.242V146.57C241.773 146.971 241.828 147.349 241.938 147.703C242.052 148.052 242.216 148.359 242.43 148.625C242.648 148.891 242.911 149.099 243.219 149.25C243.531 149.401 243.885 149.477 244.281 149.477C244.792 149.477 245.224 149.372 245.578 149.164C245.932 148.956 246.242 148.677 246.508 148.328L247.383 149.023C247.201 149.299 246.969 149.562 246.688 149.812C246.406 150.062 246.06 150.266 245.648 150.422C245.242 150.578 244.76 150.656 244.203 150.656Z" fill="black"/>
<g clip-path="url(#clip1_3576_434)">
<path d="M40.3574 481.217L43.9023 469.781H46.8809L41.8613 484H39.8789L40.3574 481.217ZM37.0859 469.781L40.6113 481.217L41.1191 484H39.1172L34.1172 469.781H37.0859ZM51.3848 473.434V484H48.7969V473.434H51.3848ZM48.6211 470.67C48.6211 470.286 48.7513 469.967 49.0117 469.713C49.2786 469.459 49.6367 469.332 50.0859 469.332C50.5352 469.332 50.89 469.459 51.1504 469.713C51.4173 469.967 51.5508 470.286 51.5508 470.67C51.5508 471.048 51.4173 471.363 51.1504 471.617C50.89 471.871 50.5352 471.998 50.0859 471.998C49.6367 471.998 49.2786 471.871 49.0117 471.617C48.7513 471.363 48.6211 471.048 48.6211 470.67ZM60.1562 481.109C60.1562 480.888 60.0977 480.689 59.9805 480.514C59.8633 480.338 59.6419 480.178 59.3164 480.035C58.9974 479.885 58.5286 479.745 57.9102 479.615C57.3633 479.498 56.8587 479.352 56.3965 479.176C55.9342 479 55.5371 478.788 55.2051 478.541C54.873 478.287 54.6126 477.991 54.4238 477.652C54.2415 477.307 54.1504 476.91 54.1504 476.461C54.1504 476.025 54.2448 475.615 54.4336 475.23C54.6224 474.84 54.8958 474.498 55.2539 474.205C55.612 473.906 56.0482 473.671 56.5625 473.502C57.0768 473.326 57.6562 473.238 58.3008 473.238C59.1992 473.238 59.9707 473.385 60.6152 473.678C61.2663 473.971 61.7643 474.374 62.1094 474.889C62.4544 475.396 62.627 475.969 62.627 476.607H60.0488C60.0488 476.327 59.9837 476.074 59.8535 475.846C59.7298 475.618 59.5378 475.436 59.2773 475.299C59.0169 475.156 58.6882 475.084 58.291 475.084C57.9329 475.084 57.6302 475.143 57.3828 475.26C57.1419 475.377 56.9596 475.53 56.8359 475.719C56.7122 475.908 56.6504 476.116 56.6504 476.344C56.6504 476.513 56.6829 476.666 56.748 476.803C56.8197 476.933 56.9336 477.053 57.0898 477.164C57.2461 477.275 57.4577 477.376 57.7246 477.467C57.998 477.558 58.3333 477.646 58.7305 477.73C59.5182 477.887 60.2051 478.095 60.791 478.355C61.3835 478.609 61.8457 478.948 62.1777 479.371C62.5098 479.794 62.6758 480.335 62.6758 480.992C62.6758 481.461 62.5749 481.891 62.373 482.281C62.1712 482.665 61.8783 483.001 61.4941 483.287C61.11 483.574 60.651 483.798 60.1172 483.961C59.5833 484.117 58.9811 484.195 58.3105 484.195C57.3405 484.195 56.5202 484.023 55.8496 483.678C55.179 483.326 54.6712 482.883 54.3262 482.35C53.9811 481.809 53.8086 481.249 53.8086 480.67H56.2793C56.2988 481.08 56.4095 481.409 56.6113 481.656C56.8132 481.904 57.0671 482.083 57.373 482.193C57.6855 482.298 58.0143 482.35 58.3594 482.35C58.75 482.35 59.0788 482.298 59.3457 482.193C59.6126 482.083 59.8145 481.936 59.9512 481.754C60.0879 481.565 60.1562 481.35 60.1562 481.109ZM70.1387 473.434V475.289H64.084V473.434H70.1387ZM65.7051 470.836H68.293V480.953C68.293 481.266 68.3353 481.507 68.4199 481.676C68.5046 481.845 68.6315 481.959 68.8008 482.018C68.9701 482.076 69.1719 482.105 69.4062 482.105C69.5755 482.105 69.7318 482.096 69.875 482.076C70.0182 482.057 70.1387 482.037 70.2363 482.018L70.2461 483.951C70.0312 484.023 69.7871 484.081 69.5137 484.127C69.2467 484.173 68.944 484.195 68.6055 484.195C68.026 484.195 67.5182 484.098 67.082 483.902C66.6458 483.701 66.3073 483.378 66.0664 482.936C65.8255 482.486 65.7051 481.894 65.7051 481.158V470.836ZM75.0918 473.434V484H72.5039V473.434H75.0918ZM72.3281 470.67C72.3281 470.286 72.4583 469.967 72.7188 469.713C72.9857 469.459 73.3438 469.332 73.793 469.332C74.2422 469.332 74.597 469.459 74.8574 469.713C75.1243 469.967 75.2578 470.286 75.2578 470.67C75.2578 471.048 75.1243 471.363 74.8574 471.617C74.597 471.871 74.2422 471.998 73.793 471.998C73.3438 471.998 72.9857 471.871 72.7188 471.617C72.4583 471.363 72.3281 471.048 72.3281 470.67ZM89.8711 481.754V469H92.4688V484H90.125L89.8711 481.754ZM83.084 478.844V478.639C83.084 477.831 83.1751 477.099 83.3574 476.441C83.5462 475.777 83.8197 475.208 84.1777 474.732C84.5358 474.257 84.9688 473.889 85.4766 473.629C85.9909 473.368 86.5736 473.238 87.2246 473.238C87.8561 473.238 88.4062 473.365 88.875 473.619C89.3503 473.873 89.7539 474.234 90.0859 474.703C90.4245 475.172 90.6947 475.729 90.8965 476.373C91.0983 477.011 91.2448 477.714 91.3359 478.482V479.039C91.2448 479.788 91.0983 480.475 90.8965 481.1C90.6947 481.725 90.4245 482.271 90.0859 482.74C89.7539 483.202 89.3503 483.561 88.875 483.814C88.3997 484.068 87.8431 484.195 87.2051 484.195C86.5605 484.195 85.9811 484.062 85.4668 483.795C84.959 483.528 84.526 483.154 84.168 482.672C83.8164 482.19 83.5462 481.624 83.3574 480.973C83.1751 480.322 83.084 479.612 83.084 478.844ZM85.6719 478.639V478.844C85.6719 479.299 85.7109 479.726 85.7891 480.123C85.8672 480.52 85.9941 480.872 86.1699 481.178C86.3457 481.477 86.5703 481.712 86.8438 481.881C87.1237 482.05 87.4622 482.135 87.8594 482.135C88.3672 482.135 88.7839 482.024 89.1094 481.803C89.4414 481.575 89.6986 481.266 89.8809 480.875C90.0632 480.478 90.1803 480.032 90.2324 479.537V478.004C90.2064 477.613 90.138 477.252 90.0273 476.92C89.9232 476.588 89.7734 476.301 89.5781 476.061C89.3893 475.82 89.1549 475.631 88.875 475.494C88.5951 475.357 88.263 475.289 87.8789 475.289C87.4818 475.289 87.1432 475.377 86.8633 475.553C86.5833 475.722 86.3555 475.96 86.1797 476.266C86.0039 476.572 85.8737 476.926 85.7891 477.33C85.7109 477.734 85.6719 478.17 85.6719 478.639ZM98.0371 473.434V484H95.4492V473.434H98.0371ZM95.2734 470.67C95.2734 470.286 95.4036 469.967 95.6641 469.713C95.931 469.459 96.2891 469.332 96.7383 469.332C97.1875 469.332 97.5423 469.459 97.8027 469.713C98.0697 469.967 98.2031 470.286 98.2031 470.67C98.2031 471.048 98.0697 471.363 97.8027 471.617C97.5423 471.871 97.1875 471.998 96.7383 471.998C96.2891 471.998 95.931 471.871 95.6641 471.617C95.4036 471.363 95.2734 471.048 95.2734 470.67ZM109.057 475.592V484H106.479V473.434H108.92L109.057 475.592ZM112.27 473.365L112.23 475.768C112.087 475.742 111.924 475.722 111.742 475.709C111.566 475.696 111.4 475.689 111.244 475.689C110.847 475.689 110.499 475.745 110.199 475.855C109.9 475.96 109.649 476.113 109.447 476.314C109.252 476.516 109.102 476.764 108.998 477.057C108.894 477.343 108.835 477.669 108.822 478.033L108.266 477.965C108.266 477.294 108.334 476.673 108.471 476.1C108.607 475.527 108.806 475.025 109.066 474.596C109.327 474.166 109.652 473.834 110.043 473.6C110.44 473.359 110.896 473.238 111.41 473.238C111.553 473.238 111.706 473.251 111.869 473.277C112.038 473.297 112.172 473.326 112.27 473.365ZM118.756 484.195C117.955 484.195 117.236 484.065 116.598 483.805C115.96 483.544 115.416 483.183 114.967 482.721C114.524 482.252 114.182 481.708 113.941 481.09C113.707 480.465 113.59 479.794 113.59 479.078V478.688C113.59 477.874 113.707 477.135 113.941 476.471C114.176 475.8 114.508 475.224 114.938 474.742C115.367 474.26 115.882 473.889 116.48 473.629C117.079 473.368 117.74 473.238 118.463 473.238C119.212 473.238 119.872 473.365 120.445 473.619C121.018 473.867 121.497 474.218 121.881 474.674C122.265 475.13 122.555 475.676 122.75 476.314C122.945 476.946 123.043 477.646 123.043 478.414V479.498H114.762V477.721H120.504V477.525C120.491 477.115 120.413 476.741 120.27 476.402C120.126 476.057 119.905 475.784 119.605 475.582C119.306 475.374 118.919 475.27 118.443 475.27C118.059 475.27 117.724 475.354 117.438 475.523C117.158 475.686 116.923 475.921 116.734 476.227C116.552 476.526 116.415 476.884 116.324 477.301C116.233 477.717 116.188 478.18 116.188 478.688V479.078C116.188 479.521 116.246 479.931 116.363 480.309C116.487 480.686 116.666 481.015 116.9 481.295C117.141 481.568 117.428 481.783 117.76 481.939C118.098 482.089 118.482 482.164 118.912 482.164C119.452 482.164 119.941 482.06 120.377 481.852C120.82 481.637 121.204 481.321 121.529 480.904L122.828 482.252C122.607 482.577 122.307 482.89 121.93 483.189C121.559 483.489 121.109 483.733 120.582 483.922C120.055 484.104 119.446 484.195 118.756 484.195ZM129.607 482.164C129.972 482.164 130.298 482.092 130.584 481.949C130.87 481.806 131.098 481.604 131.268 481.344C131.443 481.083 131.538 480.781 131.551 480.436H133.982C133.969 481.152 133.768 481.793 133.377 482.359C132.986 482.926 132.465 483.375 131.814 483.707C131.17 484.033 130.447 484.195 129.646 484.195C128.833 484.195 128.123 484.059 127.518 483.785C126.912 483.512 126.408 483.131 126.004 482.643C125.607 482.154 125.307 481.588 125.105 480.943C124.91 480.299 124.812 479.609 124.812 478.873V478.561C124.812 477.825 124.91 477.135 125.105 476.49C125.307 475.846 125.607 475.279 126.004 474.791C126.408 474.303 126.912 473.922 127.518 473.648C128.123 473.375 128.829 473.238 129.637 473.238C130.49 473.238 131.238 473.404 131.883 473.736C132.534 474.068 133.042 474.537 133.406 475.143C133.777 475.748 133.969 476.461 133.982 477.281H131.551C131.538 476.904 131.453 476.565 131.297 476.266C131.141 475.966 130.919 475.725 130.633 475.543C130.346 475.361 129.998 475.27 129.588 475.27C129.152 475.27 128.787 475.361 128.494 475.543C128.208 475.725 127.983 475.976 127.82 476.295C127.664 476.607 127.553 476.959 127.488 477.35C127.43 477.734 127.4 478.137 127.4 478.561V478.873C127.4 479.303 127.43 479.713 127.488 480.104C127.553 480.494 127.664 480.846 127.82 481.158C127.983 481.464 128.208 481.708 128.494 481.891C128.787 482.073 129.158 482.164 129.607 482.164ZM140.947 484.195C140.146 484.195 139.427 484.065 138.789 483.805C138.151 483.544 137.607 483.183 137.158 482.721C136.715 482.252 136.374 481.708 136.133 481.09C135.898 480.465 135.781 479.794 135.781 479.078V478.688C135.781 477.874 135.898 477.135 136.133 476.471C136.367 475.8 136.699 475.224 137.129 474.742C137.559 474.26 138.073 473.889 138.672 473.629C139.271 473.368 139.932 473.238 140.654 473.238C141.403 473.238 142.064 473.365 142.637 473.619C143.21 473.867 143.688 474.218 144.072 474.674C144.456 475.13 144.746 475.676 144.941 476.314C145.137 476.946 145.234 477.646 145.234 478.414V479.498H136.953V477.721H142.695V477.525C142.682 477.115 142.604 476.741 142.461 476.402C142.318 476.057 142.096 475.784 141.797 475.582C141.497 475.374 141.11 475.27 140.635 475.27C140.251 475.27 139.915 475.354 139.629 475.523C139.349 475.686 139.115 475.921 138.926 476.227C138.743 476.526 138.607 476.884 138.516 477.301C138.424 477.717 138.379 478.18 138.379 478.688V479.078C138.379 479.521 138.438 479.931 138.555 480.309C138.678 480.686 138.857 481.015 139.092 481.295C139.333 481.568 139.619 481.783 139.951 481.939C140.29 482.089 140.674 482.164 141.104 482.164C141.644 482.164 142.132 482.06 142.568 481.852C143.011 481.637 143.395 481.321 143.721 480.904L145.02 482.252C144.798 482.577 144.499 482.89 144.121 483.189C143.75 483.489 143.301 483.733 142.773 483.922C142.246 484.104 141.637 484.195 140.947 484.195ZM149.992 475.689V484H147.414V473.434H149.836L149.992 475.689ZM149.582 478.336H148.82C148.827 477.568 148.931 476.871 149.133 476.246C149.335 475.621 149.618 475.084 149.982 474.635C150.354 474.186 150.793 473.84 151.301 473.6C151.809 473.359 152.375 473.238 153 473.238C153.508 473.238 153.967 473.31 154.377 473.453C154.787 473.596 155.139 473.824 155.432 474.137C155.731 474.449 155.959 474.859 156.115 475.367C156.278 475.868 156.359 476.487 156.359 477.223V484H153.762V477.203C153.762 476.721 153.69 476.34 153.547 476.061C153.41 475.781 153.208 475.582 152.941 475.465C152.681 475.348 152.359 475.289 151.975 475.289C151.577 475.289 151.229 475.37 150.93 475.533C150.637 475.689 150.389 475.908 150.188 476.188C149.992 476.467 149.842 476.79 149.738 477.154C149.634 477.519 149.582 477.913 149.582 478.336ZM164.135 473.434V475.289H158.08V473.434H164.135ZM159.701 470.836H162.289V480.953C162.289 481.266 162.331 481.507 162.416 481.676C162.501 481.845 162.628 481.959 162.797 482.018C162.966 482.076 163.168 482.105 163.402 482.105C163.572 482.105 163.728 482.096 163.871 482.076C164.014 482.057 164.135 482.037 164.232 482.018L164.242 483.951C164.027 484.023 163.783 484.081 163.51 484.127C163.243 484.173 162.94 484.195 162.602 484.195C162.022 484.195 161.514 484.098 161.078 483.902C160.642 483.701 160.303 483.378 160.062 482.936C159.822 482.486 159.701 481.894 159.701 481.158V470.836ZM171.1 484.195C170.299 484.195 169.579 484.065 168.941 483.805C168.303 483.544 167.76 483.183 167.311 482.721C166.868 482.252 166.526 481.708 166.285 481.09C166.051 480.465 165.934 479.794 165.934 479.078V478.688C165.934 477.874 166.051 477.135 166.285 476.471C166.52 475.8 166.852 475.224 167.281 474.742C167.711 474.26 168.225 473.889 168.824 473.629C169.423 473.368 170.084 473.238 170.807 473.238C171.555 473.238 172.216 473.365 172.789 473.619C173.362 473.867 173.84 474.218 174.225 474.674C174.609 475.13 174.898 475.676 175.094 476.314C175.289 476.946 175.387 477.646 175.387 478.414V479.498H167.105V477.721H172.848V477.525C172.835 477.115 172.757 476.741 172.613 476.402C172.47 476.057 172.249 475.784 171.949 475.582C171.65 475.374 171.262 475.27 170.787 475.27C170.403 475.27 170.068 475.354 169.781 475.523C169.501 475.686 169.267 475.921 169.078 476.227C168.896 476.526 168.759 476.884 168.668 477.301C168.577 477.717 168.531 478.18 168.531 478.688V479.078C168.531 479.521 168.59 479.931 168.707 480.309C168.831 480.686 169.01 481.015 169.244 481.295C169.485 481.568 169.771 481.783 170.104 481.939C170.442 482.089 170.826 482.164 171.256 482.164C171.796 482.164 172.285 482.06 172.721 481.852C173.163 481.637 173.548 481.321 173.873 480.904L175.172 482.252C174.951 482.577 174.651 482.89 174.273 483.189C173.902 483.489 173.453 483.733 172.926 483.922C172.398 484.104 171.79 484.195 171.1 484.195Z" fill="black"/>
<rect x="34" y="501" width="167" height="219" rx="35" fill="#D9D9D9"/>
<rect x="217" y="501" width="167" height="219" rx="35" fill="#D9D9D9"/>
<rect x="400" y="501" width="167" height="219" rx="35" fill="#D9D9D9"/>
</g>
<rect x="-31" y="835" width="500" height="95" fill="#FFC73D"/>
<rect x="45.75" y="840.25" width="61.5" height="51.5" rx="25.75" fill="white" stroke="black" stroke-width="1.5"/>
<path d="M74.25 859.269C74.25 857.257 75.4166 856.251 76 856C76.5834 856.251 77.75 857.257 77.75 859.269V863.04L85.5 869.5V871.5L77.5 867.5V872L80 876L76 874.5L72 876L74.5 872V867.5L66.5 871.5V869.5L74.25 863.04V859.269Z" stroke="#1A1A1A" stroke-width="1.5" stroke-linecap="round" stroke-linejoin="round"/>
<rect x="141.5" y="841" width="60" height="50" rx="25" fill="white" fill-opacity="0.01"/>
<path d="M178.53 871.47C178.238 871.177 177.763 871.177 177.47 871.47C177.177 871.763 177.177 872.238 177.47 872.53L178 872L178.53 871.47ZM181.47 876.53C181.763 876.823 182.237 876.823 182.53 876.53C182.823 876.237 182.823 875.763 182.53 875.47L182 876L181.47 876.53ZM168.335 858.802C168.744 858.738 169.023 858.353 168.959 857.944C168.894 857.535 168.51 857.256 168.1 857.321L168.218 858.062L168.335 858.802ZM163.321 862.1C163.256 862.51 163.535 862.894 163.944 862.959C164.353 863.023 164.737 862.744 164.802 862.335L164.062 862.218L163.321 862.1ZM178 872L177.47 872.53L181.47 876.53L182 876L182.53 875.47L178.53 871.47L178 872ZM170 873V872.25C165.444 872.25 161.75 868.556 161.75 864H161H160.25C160.25 869.385 164.615 873.75 170 873.75V873ZM179 864H178.25C178.25 868.556 174.556 872.25 170 872.25V873V873.75C175.385 873.75 179.75 869.385 179.75 864H179ZM170 855V855.75C174.556 855.75 178.25 859.444 178.25 864H179H179.75C179.75 858.615 175.385 854.25 170 854.25V855ZM170 855V854.25C164.615 854.25 160.25 858.615 160.25 864H161H161.75C161.75 859.444 165.444 855.75 170 855.75V855ZM168.218 858.062L168.1 857.321C165.64 857.71 163.71 859.64 163.321 862.1L164.062 862.218L164.802 862.335C165.09 860.517 166.517 859.09 168.335 858.802L168.218 858.062Z" fill="#1A1A1A"/>
<rect x="236.5" y="841" width="60" height="50" rx="25" fill="white" fill-opacity="0.01"/>
<path d="M266 856.25C268.23 856.25 269.168 856.259 269.905 856.499C271.452 857.002 272.666 858.215 273.168 859.763C273.408 860.5 273.417 861.437 273.417 863.667V872.285C273.417 873.416 273.417 874.22 273.37 874.816C273.321 875.428 273.23 875.688 273.146 875.812C272.815 876.303 272.239 876.568 271.652 876.5C271.502 876.483 271.246 876.383 270.75 876.021C270.267 875.669 269.656 875.146 268.797 874.41C268.1 873.812 267.603 873.369 267.028 873.166C266.363 872.931 265.638 872.931 264.973 873.166C264.398 873.369 263.9 873.812 263.203 874.41C262.344 875.146 261.734 875.669 261.25 876.021C260.755 876.383 260.499 876.483 260.349 876.5C259.762 876.568 259.185 876.303 258.854 875.812C258.77 875.688 258.68 875.428 258.631 874.816C258.584 874.22 258.583 873.416 258.583 872.285V863.667C258.583 861.437 258.593 860.5 258.833 859.763C259.335 858.215 260.549 857.002 262.096 856.499C262.833 856.26 263.771 856.25 266 856.25ZM266 858.25C265.586 858.25 265.25 858.586 265.25 859C265.25 859.414 265.586 859.75 266 859.75C268.163 859.75 269.917 861.504 269.917 863.667C269.917 864.081 270.253 864.417 270.667 864.417C271.081 864.417 271.416 864.081 271.417 863.667C271.417 860.676 268.992 858.25 266 858.25Z" stroke="#1A1A1A" stroke-width="1.5" stroke-linecap="round"/>
<rect x="331.5" y="841" width="60" height="50" rx="25" fill="white" fill-opacity="0.01"/>
<path d="M354.7 859.133L354.517 859.861L354.7 859.133ZM358.203 857.11L357.482 856.904L358.203 857.11ZM351.903 863.977L352.442 863.455L351.903 863.977ZM351.903 868.023L351.364 867.501V867.501L351.903 868.023ZM354.7 872.867L354.882 873.594L354.7 872.867ZM358.203 874.89L357.482 875.096L358.203 874.89ZM363.797 874.89L364.518 875.096L363.797 874.89ZM367.3 872.867L367.483 872.139L367.3 872.867ZM370.097 868.023L369.558 868.545V868.545L370.097 868.023ZM370.097 863.977L369.558 863.455V863.455L370.097 863.977ZM367.3 859.133L367.118 858.406L367.3 859.133ZM363.797 857.11L364.518 856.904L363.797 857.11ZM354.7 859.133L354.517 859.861C356.432 860.341 358.383 859.215 358.925 857.316L358.203 857.11L357.482 856.904C357.162 858.024 356.012 858.689 354.882 858.406L354.7 859.133ZM351.903 863.977L352.442 863.455C350.931 861.895 352.411 859.333 354.517 859.861L354.7 859.133L354.882 858.406C351.312 857.511 348.804 861.854 351.364 864.499L351.903 863.977ZM351.903 868.023L352.442 868.545C353.815 867.126 353.815 864.874 352.442 863.455L351.903 863.977L351.364 864.499C352.174 865.336 352.174 866.664 351.364 867.501L351.903 868.023ZM354.7 872.867L354.517 872.139C352.411 872.667 350.931 870.105 352.442 868.545L351.903 868.023L351.364 867.501C348.804 870.146 351.312 874.489 354.882 873.594L354.7 872.867ZM358.203 874.89L358.925 874.684C358.383 872.785 356.432 871.659 354.517 872.139L354.7 872.867L354.882 873.594C356.012 873.311 357.162 873.976 357.482 875.096L358.203 874.89ZM363.797 874.89L363.075 874.684C362.48 876.772 359.52 876.772 358.925 874.684L358.203 874.89L357.482 875.096C358.492 878.635 363.508 878.635 364.518 875.096L363.797 874.89ZM367.3 872.867L367.483 872.139C365.568 871.659 363.617 872.785 363.075 874.684L363.797 874.89L364.518 875.096C364.838 873.976 365.988 873.311 367.118 873.594L367.3 872.867ZM370.097 868.023L369.558 868.545C371.069 870.105 369.589 872.667 367.483 872.139L367.3 872.867L367.118 873.594C370.688 874.489 373.196 870.146 370.636 867.501L370.097 868.023ZM370.097 863.977L369.558 863.455C368.185 864.874 368.185 867.126 369.558 868.545L370.097 868.023L370.636 867.501C369.826 866.664 369.826 865.336 370.636 864.499L370.097 863.977ZM367.3 859.133L367.483 859.861C369.589 859.333 371.069 861.895 369.558 863.455L370.097 863.977L370.636 864.499C373.196 861.854 370.688 857.511 367.118 858.406L367.3 859.133ZM363.797 857.11L363.075 857.316C363.617 859.215 365.568 860.341 367.483 859.861L367.3 859.133L367.118 858.406C365.988 858.689 364.838 858.024 364.518 856.904L363.797 857.11ZM363.797 857.11L364.518 856.904C363.508 853.365 358.492 853.365 357.482 856.904L358.203 857.11L358.925 857.316C359.52 855.228 362.48 855.228 363.075 857.316L363.797 857.11ZM357.885 866H357.135C357.135 868.135 358.865 869.865 361 869.865V869.115V868.365C359.694 868.365 358.635 867.306 358.635 866H357.885ZM361 869.115V869.865C363.135 869.865 364.865 868.135 364.865 866H364.115H363.365C363.365 867.306 362.306 868.365 361 868.365V869.115ZM364.115 866H364.865C364.865 863.865 363.135 862.135 361 862.135V862.885V863.635C362.306 863.635 363.365 864.694 363.365 866H364.115ZM361 862.885V862.135C358.865 862.135 357.135 863.865 357.135 866H357.885H358.635C358.635 864.694 359.694 863.635 361 863.635V862.885Z" fill="#1A1A1A"/>
<g clip-path="url(#clip2_3576_434)">
<path d="M40.3574 250.217L43.9023 238.781H46.8809L41.8613 253H39.8789L40.3574 250.217ZM37.0859 238.781L40.6113 250.217L41.1191 253H39.1172L34.1172 238.781H37.0859ZM51.3848 242.434V253H48.7969V242.434H51.3848ZM48.6211 239.67C48.6211 239.286 48.7513 238.967 49.0117 238.713C49.2786 238.459 49.6367 238.332 50.0859 238.332C50.5352 238.332 50.89 238.459 51.1504 238.713C51.4173 238.967 51.5508 239.286 51.5508 239.67C51.5508 240.048 51.4173 240.363 51.1504 240.617C50.89 240.871 50.5352 240.998 50.0859 240.998C49.6367 240.998 49.2786 240.871 49.0117 240.617C48.7513 240.363 48.6211 240.048 48.6211 239.67ZM60.166 250.754V245.881C60.166 245.523 60.1042 245.214 59.9805 244.953C59.8568 244.693 59.668 244.491 59.4141 244.348C59.1602 244.204 58.8379 244.133 58.4473 244.133C58.1022 244.133 57.7995 244.191 57.5391 244.309C57.2852 244.426 57.0898 244.592 56.9531 244.807C56.8164 245.015 56.748 245.256 56.748 245.529H54.1602C54.1602 245.093 54.2643 244.68 54.4727 244.289C54.681 243.892 54.9772 243.54 55.3613 243.234C55.752 242.922 56.2174 242.678 56.7578 242.502C57.3047 242.326 57.9167 242.238 58.5938 242.238C59.3945 242.238 60.1074 242.375 60.7324 242.648C61.3639 242.915 61.8587 243.319 62.2168 243.859C62.5814 244.4 62.7637 245.08 62.7637 245.9V250.51C62.7637 251.037 62.7962 251.49 62.8613 251.867C62.9329 252.238 63.0371 252.561 63.1738 252.834V253H60.5469C60.4232 252.733 60.3288 252.395 60.2637 251.984C60.1986 251.568 60.166 251.158 60.166 250.754ZM60.5273 246.564L60.5469 248.098H58.916C58.5124 248.098 58.1576 248.14 57.8516 248.225C57.5456 248.303 57.2949 248.42 57.0996 248.576C56.9043 248.726 56.7578 248.908 56.6602 249.123C56.5625 249.331 56.5137 249.569 56.5137 249.836C56.5137 250.096 56.5723 250.331 56.6895 250.539C56.8132 250.747 56.9889 250.913 57.2168 251.037C57.4512 251.154 57.7246 251.213 58.0371 251.213C58.4928 251.213 58.89 251.122 59.2285 250.939C59.5671 250.751 59.8307 250.523 60.0195 250.256C60.2083 249.989 60.3092 249.735 60.3223 249.494L61.0645 250.607C60.9733 250.874 60.8366 251.158 60.6543 251.457C60.472 251.757 60.2376 252.036 59.9512 252.297C59.6647 252.557 59.3197 252.772 58.916 252.941C58.5124 253.111 58.0436 253.195 57.5098 253.195C56.8262 253.195 56.2142 253.059 55.6738 252.785C55.1335 252.512 54.707 252.137 54.3945 251.662C54.082 251.187 53.9258 250.646 53.9258 250.041C53.9258 249.481 54.0299 248.986 54.2383 248.557C54.4466 248.127 54.7559 247.766 55.166 247.473C55.5762 247.173 56.084 246.949 56.6895 246.799C57.3014 246.643 58.0013 246.564 58.7891 246.564H60.5273ZM72.3066 242.434H74.6504V252.678C74.6504 253.635 74.4421 254.445 74.0254 255.109C73.6152 255.78 73.0391 256.288 72.2969 256.633C71.5547 256.984 70.6921 257.16 69.709 257.16C69.2858 257.16 68.8268 257.102 68.332 256.984C67.8438 256.867 67.3717 256.682 66.916 256.428C66.4668 256.18 66.0924 255.858 65.793 255.461L66.9551 253.938C67.3066 254.348 67.7038 254.657 68.1465 254.865C68.5892 255.08 69.0677 255.188 69.582 255.188C70.1029 255.188 70.5456 255.09 70.9102 254.895C71.2812 254.706 71.5645 254.426 71.7598 254.055C71.9616 253.69 72.0625 253.241 72.0625 252.707V244.846L72.3066 242.434ZM65.168 247.844V247.639C65.168 246.831 65.2656 246.099 65.4609 245.441C65.6562 244.777 65.9362 244.208 66.3008 243.732C66.6719 243.257 67.1178 242.889 67.6387 242.629C68.166 242.368 68.7585 242.238 69.416 242.238C70.1126 242.238 70.6986 242.365 71.1738 242.619C71.6556 242.873 72.0527 243.234 72.3652 243.703C72.6842 244.172 72.9316 244.729 73.1074 245.373C73.2897 246.011 73.4297 246.714 73.5273 247.482V248.039C73.4362 248.788 73.2897 249.475 73.0879 250.1C72.8926 250.725 72.6322 251.271 72.3066 251.74C71.9811 252.202 71.5775 252.561 71.0957 252.814C70.6139 253.068 70.0475 253.195 69.3965 253.195C68.7454 253.195 68.1595 253.062 67.6387 252.795C67.1178 252.528 66.6719 252.154 66.3008 251.672C65.9362 251.19 65.6562 250.624 65.4609 249.973C65.2656 249.322 65.168 248.612 65.168 247.844ZM67.7461 247.639V247.844C67.7461 248.299 67.7917 248.726 67.8828 249.123C67.974 249.52 68.1139 249.872 68.3027 250.178C68.4915 250.477 68.7292 250.712 69.0156 250.881C69.3021 251.05 69.6439 251.135 70.041 251.135C70.5749 251.135 71.0111 251.024 71.3496 250.803C71.6947 250.575 71.9551 250.266 72.1309 249.875C72.3132 249.478 72.4303 249.032 72.4824 248.537V247.004C72.4499 246.613 72.3783 246.252 72.2676 245.92C72.1634 245.588 72.0169 245.301 71.8281 245.061C71.6393 244.82 71.3984 244.631 71.1055 244.494C70.8125 244.357 70.4642 244.289 70.0605 244.289C69.6699 244.289 69.3281 244.377 69.0352 244.553C68.7422 244.722 68.5013 244.96 68.3125 245.266C68.1237 245.572 67.9805 245.926 67.8828 246.33C67.7917 246.734 67.7461 247.17 67.7461 247.639ZM84.1934 242.434H86.5371V252.678C86.5371 253.635 86.3288 254.445 85.9121 255.109C85.502 255.78 84.9258 256.288 84.1836 256.633C83.4414 256.984 82.5788 257.16 81.5957 257.16C81.1725 257.16 80.7135 257.102 80.2188 256.984C79.7305 256.867 79.2585 256.682 78.8027 256.428C78.3535 256.18 77.9792 255.858 77.6797 255.461L78.8418 253.938C79.1934 254.348 79.5905 254.657 80.0332 254.865C80.4759 255.08 80.9544 255.188 81.4688 255.188C81.9896 255.188 82.4323 255.09 82.7969 254.895C83.168 254.706 83.4512 254.426 83.6465 254.055C83.8483 253.69 83.9492 253.241 83.9492 252.707V244.846L84.1934 242.434ZM77.0547 247.844V247.639C77.0547 246.831 77.1523 246.099 77.3477 245.441C77.543 244.777 77.8229 244.208 78.1875 243.732C78.5586 243.257 79.0046 242.889 79.5254 242.629C80.0527 242.368 80.6452 242.238 81.3027 242.238C81.9993 242.238 82.5853 242.365 83.0605 242.619C83.5423 242.873 83.9395 243.234 84.252 243.703C84.571 244.172 84.8184 244.729 84.9941 245.373C85.1764 246.011 85.3164 246.714 85.4141 247.482V248.039C85.3229 248.788 85.1764 249.475 84.9746 250.1C84.7793 250.725 84.5189 251.271 84.1934 251.74C83.8678 252.202 83.4642 252.561 82.9824 252.814C82.5007 253.068 81.9342 253.195 81.2832 253.195C80.6322 253.195 80.0462 253.062 79.5254 252.795C79.0046 252.528 78.5586 252.154 78.1875 251.672C77.8229 251.19 77.543 250.624 77.3477 249.973C77.1523 249.322 77.0547 248.612 77.0547 247.844ZM79.6328 247.639V247.844C79.6328 248.299 79.6784 248.726 79.7695 249.123C79.8607 249.52 80.0007 249.872 80.1895 250.178C80.3783 250.477 80.6159 250.712 80.9023 250.881C81.1888 251.05 81.5306 251.135 81.9277 251.135C82.4616 251.135 82.8978 251.024 83.2363 250.803C83.5814 250.575 83.8418 250.266 84.0176 249.875C84.1999 249.478 84.3171 249.032 84.3691 248.537V247.004C84.3366 246.613 84.265 246.252 84.1543 245.92C84.0501 245.588 83.9036 245.301 83.7148 245.061C83.526 244.82 83.2852 244.631 82.9922 244.494C82.6992 244.357 82.3509 244.289 81.9473 244.289C81.5566 244.289 81.2148 244.377 80.9219 244.553C80.6289 244.722 80.388 244.96 80.1992 245.266C80.0104 245.572 79.8672 245.926 79.7695 246.33C79.6784 246.734 79.6328 247.17 79.6328 247.639ZM92.0957 242.434V253H89.5078V242.434H92.0957ZM89.332 239.67C89.332 239.286 89.4622 238.967 89.7227 238.713C89.9896 238.459 90.3477 238.332 90.7969 238.332C91.2461 238.332 91.6009 238.459 91.8613 238.713C92.1283 238.967 92.2617 239.286 92.2617 239.67C92.2617 240.048 92.1283 240.363 91.8613 240.617C91.6009 240.871 91.2461 240.998 90.7969 240.998C90.3477 240.998 89.9896 240.871 89.7227 240.617C89.4622 240.363 89.332 240.048 89.332 239.67ZM104.873 251.164C105.238 251.164 105.563 251.092 105.85 250.949C106.136 250.806 106.364 250.604 106.533 250.344C106.709 250.083 106.803 249.781 106.816 249.436H109.248C109.235 250.152 109.033 250.793 108.643 251.359C108.252 251.926 107.731 252.375 107.08 252.707C106.436 253.033 105.713 253.195 104.912 253.195C104.098 253.195 103.389 253.059 102.783 252.785C102.178 252.512 101.673 252.131 101.27 251.643C100.872 251.154 100.573 250.588 100.371 249.943C100.176 249.299 100.078 248.609 100.078 247.873V247.561C100.078 246.825 100.176 246.135 100.371 245.49C100.573 244.846 100.872 244.279 101.27 243.791C101.673 243.303 102.178 242.922 102.783 242.648C103.389 242.375 104.095 242.238 104.902 242.238C105.755 242.238 106.504 242.404 107.148 242.736C107.799 243.068 108.307 243.537 108.672 244.143C109.043 244.748 109.235 245.461 109.248 246.281H106.816C106.803 245.904 106.719 245.565 106.562 245.266C106.406 244.966 106.185 244.725 105.898 244.543C105.612 244.361 105.264 244.27 104.854 244.27C104.417 244.27 104.053 244.361 103.76 244.543C103.473 244.725 103.249 244.976 103.086 245.295C102.93 245.607 102.819 245.959 102.754 246.35C102.695 246.734 102.666 247.137 102.666 247.561V247.873C102.666 248.303 102.695 248.713 102.754 249.104C102.819 249.494 102.93 249.846 103.086 250.158C103.249 250.464 103.473 250.708 103.76 250.891C104.053 251.073 104.424 251.164 104.873 251.164ZM111.008 247.824V247.619C111.008 246.844 111.118 246.132 111.34 245.48C111.561 244.823 111.883 244.253 112.307 243.771C112.73 243.29 113.247 242.915 113.859 242.648C114.471 242.375 115.168 242.238 115.949 242.238C116.743 242.238 117.447 242.375 118.059 242.648C118.677 242.915 119.198 243.29 119.621 243.771C120.044 244.253 120.367 244.823 120.588 245.48C120.809 246.132 120.92 246.844 120.92 247.619V247.824C120.92 248.592 120.809 249.305 120.588 249.963C120.367 250.614 120.044 251.184 119.621 251.672C119.198 252.154 118.68 252.528 118.068 252.795C117.456 253.062 116.757 253.195 115.969 253.195C115.188 253.195 114.488 253.062 113.869 252.795C113.251 252.528 112.73 252.154 112.307 251.672C111.883 251.184 111.561 250.614 111.34 249.963C111.118 249.305 111.008 248.592 111.008 247.824ZM113.586 247.619V247.824C113.586 248.286 113.632 248.719 113.723 249.123C113.814 249.527 113.954 249.882 114.143 250.188C114.331 250.493 114.576 250.734 114.875 250.91C115.181 251.079 115.546 251.164 115.969 251.164C116.385 251.164 116.743 251.079 117.043 250.91C117.342 250.734 117.587 250.493 117.775 250.188C117.971 249.882 118.114 249.527 118.205 249.123C118.296 248.719 118.342 248.286 118.342 247.824V247.619C118.342 247.163 118.296 246.737 118.205 246.34C118.114 245.936 117.971 245.581 117.775 245.275C117.587 244.963 117.339 244.719 117.033 244.543C116.734 244.361 116.372 244.27 115.949 244.27C115.533 244.27 115.174 244.361 114.875 244.543C114.576 244.719 114.331 244.963 114.143 245.275C113.954 245.581 113.814 245.936 113.723 246.34C113.632 246.737 113.586 247.163 113.586 247.619ZM125.824 244.689V253H123.246V242.434H125.668L125.824 244.689ZM125.414 247.336H124.652C124.659 246.568 124.763 245.871 124.965 245.246C125.167 244.621 125.45 244.084 125.814 243.635C126.186 243.186 126.625 242.84 127.133 242.6C127.641 242.359 128.207 242.238 128.832 242.238C129.34 242.238 129.799 242.31 130.209 242.453C130.619 242.596 130.971 242.824 131.264 243.137C131.563 243.449 131.791 243.859 131.947 244.367C132.11 244.868 132.191 245.487 132.191 246.223V253H129.594V246.203C129.594 245.721 129.522 245.34 129.379 245.061C129.242 244.781 129.04 244.582 128.773 244.465C128.513 244.348 128.191 244.289 127.807 244.289C127.41 244.289 127.061 244.37 126.762 244.533C126.469 244.689 126.221 244.908 126.02 245.188C125.824 245.467 125.674 245.79 125.57 246.154C125.466 246.519 125.414 246.913 125.414 247.336ZM140.777 250.109C140.777 249.888 140.719 249.689 140.602 249.514C140.484 249.338 140.263 249.178 139.938 249.035C139.618 248.885 139.15 248.745 138.531 248.615C137.984 248.498 137.48 248.352 137.018 248.176C136.555 248 136.158 247.788 135.826 247.541C135.494 247.287 135.234 246.991 135.045 246.652C134.863 246.307 134.771 245.91 134.771 245.461C134.771 245.025 134.866 244.615 135.055 244.23C135.243 243.84 135.517 243.498 135.875 243.205C136.233 242.906 136.669 242.671 137.184 242.502C137.698 242.326 138.277 242.238 138.922 242.238C139.82 242.238 140.592 242.385 141.236 242.678C141.887 242.971 142.385 243.374 142.73 243.889C143.076 244.396 143.248 244.969 143.248 245.607H140.67C140.67 245.327 140.605 245.074 140.475 244.846C140.351 244.618 140.159 244.436 139.898 244.299C139.638 244.156 139.309 244.084 138.912 244.084C138.554 244.084 138.251 244.143 138.004 244.26C137.763 244.377 137.581 244.53 137.457 244.719C137.333 244.908 137.271 245.116 137.271 245.344C137.271 245.513 137.304 245.666 137.369 245.803C137.441 245.933 137.555 246.053 137.711 246.164C137.867 246.275 138.079 246.376 138.346 246.467C138.619 246.558 138.954 246.646 139.352 246.73C140.139 246.887 140.826 247.095 141.412 247.355C142.005 247.609 142.467 247.948 142.799 248.371C143.131 248.794 143.297 249.335 143.297 249.992C143.297 250.461 143.196 250.891 142.994 251.281C142.792 251.665 142.499 252.001 142.115 252.287C141.731 252.574 141.272 252.798 140.738 252.961C140.204 253.117 139.602 253.195 138.932 253.195C137.962 253.195 137.141 253.023 136.471 252.678C135.8 252.326 135.292 251.883 134.947 251.35C134.602 250.809 134.43 250.249 134.43 249.67H136.9C136.92 250.08 137.031 250.409 137.232 250.656C137.434 250.904 137.688 251.083 137.994 251.193C138.307 251.298 138.635 251.35 138.98 251.35C139.371 251.35 139.7 251.298 139.967 251.193C140.234 251.083 140.436 250.936 140.572 250.754C140.709 250.565 140.777 250.35 140.777 250.109ZM148.494 242.434V253H145.906V242.434H148.494ZM145.73 239.67C145.73 239.286 145.861 238.967 146.121 238.713C146.388 238.459 146.746 238.332 147.195 238.332C147.645 238.332 147.999 238.459 148.26 238.713C148.527 238.967 148.66 239.286 148.66 239.67C148.66 240.048 148.527 240.363 148.26 240.617C147.999 240.871 147.645 240.998 147.195 240.998C146.746 240.998 146.388 240.871 146.121 240.617C145.861 240.363 145.73 240.048 145.73 239.67ZM158.174 242.434H160.518V252.678C160.518 253.635 160.309 254.445 159.893 255.109C159.482 255.78 158.906 256.288 158.164 256.633C157.422 256.984 156.559 257.16 155.576 257.16C155.153 257.16 154.694 257.102 154.199 256.984C153.711 256.867 153.239 256.682 152.783 256.428C152.334 256.18 151.96 255.858 151.66 255.461L152.822 253.938C153.174 254.348 153.571 254.657 154.014 254.865C154.456 255.08 154.935 255.188 155.449 255.188C155.97 255.188 156.413 255.09 156.777 254.895C157.148 254.706 157.432 254.426 157.627 254.055C157.829 253.69 157.93 253.241 157.93 252.707V244.846L158.174 242.434ZM151.035 247.844V247.639C151.035 246.831 151.133 246.099 151.328 245.441C151.523 244.777 151.803 244.208 152.168 243.732C152.539 243.257 152.985 242.889 153.506 242.629C154.033 242.368 154.626 242.238 155.283 242.238C155.98 242.238 156.566 242.365 157.041 242.619C157.523 242.873 157.92 243.234 158.232 243.703C158.551 244.172 158.799 244.729 158.975 245.373C159.157 246.011 159.297 246.714 159.395 247.482V248.039C159.303 248.788 159.157 249.475 158.955 250.1C158.76 250.725 158.499 251.271 158.174 251.74C157.848 252.202 157.445 252.561 156.963 252.814C156.481 253.068 155.915 253.195 155.264 253.195C154.613 253.195 154.027 253.062 153.506 252.795C152.985 252.528 152.539 252.154 152.168 251.672C151.803 251.19 151.523 250.624 151.328 249.973C151.133 249.322 151.035 248.612 151.035 247.844ZM153.613 247.639V247.844C153.613 248.299 153.659 248.726 153.75 249.123C153.841 249.52 153.981 249.872 154.17 250.178C154.359 250.477 154.596 250.712 154.883 250.881C155.169 251.05 155.511 251.135 155.908 251.135C156.442 251.135 156.878 251.024 157.217 250.803C157.562 250.575 157.822 250.266 157.998 249.875C158.18 249.478 158.298 249.032 158.35 248.537V247.004C158.317 246.613 158.245 246.252 158.135 245.92C158.031 245.588 157.884 245.301 157.695 245.061C157.507 244.82 157.266 244.631 156.973 244.494C156.68 244.357 156.331 244.289 155.928 244.289C155.537 244.289 155.195 244.377 154.902 244.553C154.609 244.722 154.368 244.96 154.18 245.266C153.991 245.572 153.848 245.926 153.75 246.33C153.659 246.734 153.613 247.17 153.613 247.639ZM166.076 238V253H163.488V238H166.076ZM171.771 242.434V253H169.184V242.434H171.771ZM169.008 239.67C169.008 239.286 169.138 238.967 169.398 238.713C169.665 238.459 170.023 238.332 170.473 238.332C170.922 238.332 171.277 238.459 171.537 238.713C171.804 238.967 171.938 239.286 171.938 239.67C171.938 240.048 171.804 240.363 171.537 240.617C171.277 240.871 170.922 240.998 170.473 240.998C170.023 240.998 169.665 240.871 169.398 240.617C169.138 240.363 169.008 240.048 169.008 239.67ZM180.553 250.754V245.881C180.553 245.523 180.491 245.214 180.367 244.953C180.243 244.693 180.055 244.491 179.801 244.348C179.547 244.204 179.225 244.133 178.834 244.133C178.489 244.133 178.186 244.191 177.926 244.309C177.672 244.426 177.477 244.592 177.34 244.807C177.203 245.015 177.135 245.256 177.135 245.529H174.547C174.547 245.093 174.651 244.68 174.859 244.289C175.068 243.892 175.364 243.54 175.748 243.234C176.139 242.922 176.604 242.678 177.145 242.502C177.691 242.326 178.303 242.238 178.98 242.238C179.781 242.238 180.494 242.375 181.119 242.648C181.751 242.915 182.245 243.319 182.604 243.859C182.968 244.4 183.15 245.08 183.15 245.9V250.51C183.15 251.037 183.183 251.49 183.248 251.867C183.32 252.238 183.424 252.561 183.561 252.834V253H180.934C180.81 252.733 180.715 252.395 180.65 251.984C180.585 251.568 180.553 251.158 180.553 250.754ZM180.914 246.564L180.934 248.098H179.303C178.899 248.098 178.544 248.14 178.238 248.225C177.932 248.303 177.682 248.42 177.486 248.576C177.291 248.726 177.145 248.908 177.047 249.123C176.949 249.331 176.9 249.569 176.9 249.836C176.9 250.096 176.959 250.331 177.076 250.539C177.2 250.747 177.376 250.913 177.604 251.037C177.838 251.154 178.111 251.213 178.424 251.213C178.88 251.213 179.277 251.122 179.615 250.939C179.954 250.751 180.217 250.523 180.406 250.256C180.595 249.989 180.696 249.735 180.709 249.494L181.451 250.607C181.36 250.874 181.223 251.158 181.041 251.457C180.859 251.757 180.624 252.036 180.338 252.297C180.051 252.557 179.706 252.772 179.303 252.941C178.899 253.111 178.43 253.195 177.896 253.195C177.213 253.195 176.601 253.059 176.061 252.785C175.52 252.512 175.094 252.137 174.781 251.662C174.469 251.187 174.312 250.646 174.312 250.041C174.312 249.481 174.417 248.986 174.625 248.557C174.833 248.127 175.143 247.766 175.553 247.473C175.963 247.173 176.471 246.949 177.076 246.799C177.688 246.643 178.388 246.564 179.176 246.564H180.914ZM190.975 242.434V244.289H184.92V242.434H190.975ZM186.541 239.836H189.129V249.953C189.129 250.266 189.171 250.507 189.256 250.676C189.34 250.845 189.467 250.959 189.637 251.018C189.806 251.076 190.008 251.105 190.242 251.105C190.411 251.105 190.568 251.096 190.711 251.076C190.854 251.057 190.975 251.037 191.072 251.018L191.082 252.951C190.867 253.023 190.623 253.081 190.35 253.127C190.083 253.173 189.78 253.195 189.441 253.195C188.862 253.195 188.354 253.098 187.918 252.902C187.482 252.701 187.143 252.378 186.902 251.936C186.661 251.486 186.541 250.894 186.541 250.158V239.836ZM195.928 242.434V253H193.34V242.434H195.928ZM193.164 239.67C193.164 239.286 193.294 238.967 193.555 238.713C193.822 238.459 194.18 238.332 194.629 238.332C195.078 238.332 195.433 238.459 195.693 238.713C195.96 238.967 196.094 239.286 196.094 239.67C196.094 240.048 195.96 240.363 195.693 240.617C195.433 240.871 195.078 240.998 194.629 240.998C194.18 240.998 193.822 240.871 193.555 240.617C193.294 240.363 193.164 240.048 193.164 239.67ZM206.947 244.465V257.062H204.359V242.434H206.752L206.947 244.465ZM213.734 247.609V247.814C213.734 248.583 213.643 249.296 213.461 249.953C213.285 250.604 213.025 251.174 212.68 251.662C212.335 252.144 211.905 252.521 211.391 252.795C210.883 253.062 210.297 253.195 209.633 253.195C208.982 253.195 208.415 253.072 207.934 252.824C207.452 252.57 207.045 252.212 206.713 251.75C206.381 251.288 206.114 250.751 205.912 250.139C205.717 249.52 205.57 248.846 205.473 248.117V247.463C205.57 246.688 205.717 245.985 205.912 245.354C206.114 244.715 206.381 244.165 206.713 243.703C207.045 243.234 207.449 242.873 207.924 242.619C208.406 242.365 208.969 242.238 209.613 242.238C210.284 242.238 210.873 242.365 211.381 242.619C211.895 242.873 212.328 243.238 212.68 243.713C213.031 244.188 213.295 244.755 213.471 245.412C213.646 246.07 213.734 246.802 213.734 247.609ZM211.146 247.814V247.609C211.146 247.141 211.104 246.708 211.02 246.311C210.935 245.907 210.805 245.555 210.629 245.256C210.453 244.95 210.225 244.712 209.945 244.543C209.665 244.374 209.327 244.289 208.93 244.289C208.533 244.289 208.191 244.354 207.904 244.484C207.618 244.615 207.383 244.8 207.201 245.041C207.019 245.282 206.876 245.568 206.771 245.9C206.674 246.226 206.609 246.587 206.576 246.984V248.605C206.635 249.087 206.749 249.52 206.918 249.904C207.087 250.288 207.335 250.594 207.66 250.822C207.992 251.05 208.422 251.164 208.949 251.164C209.346 251.164 209.685 251.076 209.965 250.9C210.245 250.725 210.473 250.484 210.648 250.178C210.824 249.865 210.951 249.507 211.029 249.104C211.107 248.7 211.146 248.27 211.146 247.814ZM220.865 253.195C220.064 253.195 219.345 253.065 218.707 252.805C218.069 252.544 217.525 252.183 217.076 251.721C216.633 251.252 216.292 250.708 216.051 250.09C215.816 249.465 215.699 248.794 215.699 248.078V247.688C215.699 246.874 215.816 246.135 216.051 245.471C216.285 244.8 216.617 244.224 217.047 243.742C217.477 243.26 217.991 242.889 218.59 242.629C219.189 242.368 219.85 242.238 220.572 242.238C221.321 242.238 221.982 242.365 222.555 242.619C223.128 242.867 223.606 243.218 223.99 243.674C224.374 244.13 224.664 244.676 224.859 245.314C225.055 245.946 225.152 246.646 225.152 247.414V248.498H216.871V246.721H222.613V246.525C222.6 246.115 222.522 245.741 222.379 245.402C222.236 245.057 222.014 244.784 221.715 244.582C221.415 244.374 221.028 244.27 220.553 244.27C220.169 244.27 219.833 244.354 219.547 244.523C219.267 244.686 219.033 244.921 218.844 245.227C218.661 245.526 218.525 245.884 218.434 246.301C218.342 246.717 218.297 247.18 218.297 247.688V248.078C218.297 248.521 218.355 248.931 218.473 249.309C218.596 249.686 218.775 250.015 219.01 250.295C219.251 250.568 219.537 250.783 219.869 250.939C220.208 251.089 220.592 251.164 221.021 251.164C221.562 251.164 222.05 251.06 222.486 250.852C222.929 250.637 223.313 250.321 223.639 249.904L224.938 251.252C224.716 251.577 224.417 251.89 224.039 252.189C223.668 252.489 223.219 252.733 222.691 252.922C222.164 253.104 221.555 253.195 220.865 253.195ZM229.959 244.592V253H227.381V242.434H229.822L229.959 244.592ZM233.172 242.365L233.133 244.768C232.99 244.742 232.827 244.722 232.645 244.709C232.469 244.696 232.303 244.689 232.146 244.689C231.749 244.689 231.401 244.745 231.102 244.855C230.802 244.96 230.551 245.113 230.35 245.314C230.154 245.516 230.005 245.764 229.9 246.057C229.796 246.343 229.738 246.669 229.725 247.033L229.168 246.965C229.168 246.294 229.236 245.673 229.373 245.1C229.51 244.527 229.708 244.025 229.969 243.596C230.229 243.166 230.555 242.834 230.945 242.6C231.342 242.359 231.798 242.238 232.312 242.238C232.456 242.238 232.609 242.251 232.771 242.277C232.941 242.297 233.074 242.326 233.172 242.365ZM245.568 242.434V244.289H239.514V242.434H245.568ZM241.135 239.836H243.723V249.953C243.723 250.266 243.765 250.507 243.85 250.676C243.934 250.845 244.061 250.959 244.23 251.018C244.4 251.076 244.602 251.105 244.836 251.105C245.005 251.105 245.161 251.096 245.305 251.076C245.448 251.057 245.568 251.037 245.666 251.018L245.676 252.951C245.461 253.023 245.217 253.081 244.943 253.127C244.676 253.173 244.374 253.195 244.035 253.195C243.456 253.195 242.948 253.098 242.512 252.902C242.076 252.701 241.737 252.378 241.496 251.936C241.255 251.486 241.135 250.894 241.135 250.158V239.836ZM252.533 253.195C251.732 253.195 251.013 253.065 250.375 252.805C249.737 252.544 249.193 252.183 248.744 251.721C248.301 251.252 247.96 250.708 247.719 250.09C247.484 249.465 247.367 248.794 247.367 248.078V247.688C247.367 246.874 247.484 246.135 247.719 245.471C247.953 244.8 248.285 244.224 248.715 243.742C249.145 243.26 249.659 242.889 250.258 242.629C250.857 242.368 251.518 242.238 252.24 242.238C252.989 242.238 253.65 242.365 254.223 242.619C254.796 242.867 255.274 243.218 255.658 243.674C256.042 244.13 256.332 244.676 256.527 245.314C256.723 245.946 256.82 246.646 256.82 247.414V248.498H248.539V246.721H254.281V246.525C254.268 246.115 254.19 245.741 254.047 245.402C253.904 245.057 253.682 244.784 253.383 244.582C253.083 244.374 252.696 244.27 252.221 244.27C251.837 244.27 251.501 244.354 251.215 244.523C250.935 244.686 250.701 244.921 250.512 245.227C250.329 245.526 250.193 245.884 250.102 246.301C250.01 246.717 249.965 247.18 249.965 247.688V248.078C249.965 248.521 250.023 248.931 250.141 249.309C250.264 249.686 250.443 250.015 250.678 250.295C250.919 250.568 251.205 250.783 251.537 250.939C251.876 251.089 252.26 251.164 252.689 251.164C253.23 251.164 253.718 251.06 254.154 250.852C254.597 250.637 254.981 250.321 255.307 249.904L256.605 251.252C256.384 251.577 256.085 251.89 255.707 252.189C255.336 252.489 254.887 252.733 254.359 252.922C253.832 253.104 253.223 253.195 252.533 253.195Z" fill="black"/>
<rect x="34" y="270" width="134" height="134" rx="20" fill="#D9D9D9"/>
<rect x="184" y="270" width="134" height="134" rx="20" fill="#D9D9D9"/>
<rect x="334" y="270" width="134" height="134" rx="20" fill="#D9D9D9"/>
</g>
</g>
<path d="M31 0.5H407C421.636 0.5 433.5 12.3645 433.5 27V902C433.5 916.636 421.636 928.5 407 928.5H31C16.3645 928.5 4.5 916.636 4.5 902V27L4.50879 26.3164C4.87138 11.9968 16.593 0.5 31 0.5Z" stroke="black"/>
</g>
<defs>
<filter id="filter0_d_3576_434" x="0" y="0" width="438" height="937" filterUnits="userSpaceOnUse" color-interpolation-filters="sRGB">
<feFlood flood-opacity="0" result="BackgroundImageFix"/>
<feColorMatrix in="SourceAlpha" type="matrix" values="0 0 0 0 0 0 0 0 0 0 0 0 0 0 0 0 0 0 127 0" result="hardAlpha"/>
<feOffset dy="4"/>
<feGaussianBlur stdDeviation="2"/>
<feComposite in2="hardAlpha" operator="out"/>
<feColorMatrix type="matrix" values="0 0 0 0 0 0 0 0 0 0 0 0 0 0 0 0 0 0 0.25 0"/>
<feBlend mode="normal" in2="BackgroundImageFix" result="effect1_dropShadow_3576_434"/>
<feBlend mode="normal" in="SourceGraphic" in2="effect1_dropShadow_3576_434" result="shape"/>
</filter>
<clipPath id="clip0_3576_434">
<path d="M4 27C4 12.0883 16.0883 0 31 0H407C421.912 0 434 12.0883 434 27V902C434 916.912 421.912 929 407 929H31C16.0883 929 4 916.912 4 902V27Z" fill="white"/>
</clipPath>
<clipPath id="clip1_3576_434">
<rect width="399" height="255" fill="white" transform="translate(34 465)"/>
</clipPath>
<clipPath id="clip2_3576_434">
<rect width="400" height="170" fill="white" transform="translate(34 234)"/>
</clipPath>
</defs>
</svg>
